HIERARCHY
ROOT Hips
{
    OFFSET   0.000000   0.000000   0.000000
    CHANNELS 6 Xposition Yposition Zposition Zrotation Xrotation Yrotation
    JOINT Chest
    {
        OFFSET   0.000000   8.007240   0.000000
        CHANNELS 3 Zrotation Xrotation Yrotation
        JOINT Chest2
        {
            OFFSET   0.000000  22.077100   0.000000
            CHANNELS 3 Zrotation Xrotation Yrotation
            JOINT Neck
            {
                OFFSET   0.000000  23.254800   0.000000
                CHANNELS 3 Zrotation Xrotation Yrotation
                JOINT Head
                {
                    OFFSET   0.000000  14.370000   1.956600
                    CHANNELS 3 Zrotation Xrotation Yrotation
                    End Site
                    {
                        OFFSET   0.000000  19.566000   0.000000
                    }
                }
            }
            JOINT LeftCollar
            {
                OFFSET   3.911900  19.017000  -0.467064
                CHANNELS 3 Zrotation Xrotation Yrotation
                JOINT LeftShoulder
                {
                    OFFSET  10.383700   0.000000   0.000000
                    CHANNELS 3 Zrotation Xrotation Yrotation
                    JOINT LeftElbow
                    {
                        OFFSET  26.662100   0.001476   0.000517
                        CHANNELS 3 Zrotation Xrotation Yrotation
                        JOINT LeftWrist
                        {
                            OFFSET  28.869000  -0.000025  -0.000106
                            CHANNELS 3 Zrotation Xrotation Yrotation
                            JOINT LeftFinger0
                            {
                                OFFSET   2.044660  -2.323460   3.252850
                                CHANNELS 3 Zrotation Xrotation Yrotation
                                JOINT LeftFinger01
                                {
                                    OFFSET   3.088130   0.000000   0.000000
                                    CHANNELS 3 Zrotation Xrotation Yrotation
                                    JOINT LeftFinger02
                                    {
                                        OFFSET   2.639460   0.000000   0.000000
                                        CHANNELS 3 Zrotation Xrotation Yrotation
                                        End Site
                                        {
                                            OFFSET   2.582190   0.000000   0.000000
                                        }
                                    }
                                }
                            }
                            JOINT LeftFinger1
                            {
                                OFFSET   8.364480   0.000000   3.252850
                                CHANNELS 3 Zrotation Xrotation Yrotation
                                JOINT LeftFinger11
                                {
                                    OFFSET   4.646930   0.000000   0.000000
                                    CHANNELS 3 Zrotation Xrotation Yrotation
                                    JOINT LeftFinger12
                                    {
                                        OFFSET   2.323460   0.000000   0.000000
                                        CHANNELS 3 Zrotation Xrotation Yrotation
                                        End Site
                                        {
                                            OFFSET   2.273050   0.000000   0.000000
                                        }
                                    }
                                }
                            }
                            JOINT LeftFinger2
                            {
                                OFFSET   8.364490   0.000015   1.078090
                                CHANNELS 3 Zrotation Xrotation Yrotation
                                JOINT LeftFinger21
                                {
                                    OFFSET   5.111620   0.000000   0.000000
                                    CHANNELS 3 Zrotation Xrotation Yrotation
                                    JOINT LeftFinger22
                                    {
                                        OFFSET   2.788160   0.000016   0.000000
                                        CHANNELS 3 Zrotation Xrotation Yrotation
                                        End Site
                                        {
                                            OFFSET   2.727660   0.000000   0.000000
                                        }
                                    }
                                }
                            }
                            JOINT LeftFinger3
                            {
                                OFFSET   7.899780   0.000017  -1.078090
                                CHANNELS 3 Zrotation Xrotation Yrotation
                                JOINT LeftFinger31
                                {
                                    OFFSET   4.646930   0.000000   0.000000
                                    CHANNELS 3 Zrotation Xrotation Yrotation
                                    JOINT LeftFinger32
                                    {
                                        OFFSET   2.323470   0.000000   0.000000
                                        CHANNELS 3 Zrotation Xrotation Yrotation
                                        End Site
                                        {
                                            OFFSET   2.273050   0.000000   0.000000
                                        }
                                    }
                                }
                            }
                            JOINT LeftFinger4
                            {
                                OFFSET   7.435090   0.000000  -3.252850
                                CHANNELS 3 Zrotation Xrotation Yrotation
                                JOINT LeftFinger41
                                {
                                    OFFSET   3.717550   0.000000   0.000000
                                    CHANNELS 3 Zrotation Xrotation Yrotation
                                    JOINT LeftFinger42
                                    {
                                        OFFSET   1.858770   0.000000   0.000000
                                        CHANNELS 3 Zrotation Xrotation Yrotation
                                        End Site
                                        {
                                            OFFSET   1.818440   0.000000   0.000000
                                        }
                                    }
                                }
                            }
                        }
                    }
                }
            }
            JOINT RightCollar
            {
                OFFSET  -3.911900  19.017000  -0.467063
                CHANNELS 3 Zrotation Xrotation Yrotation
                JOINT RightShoulder
                {
                    OFFSET -10.383700   0.000019   0.000000
                    CHANNELS 3 Zrotation Xrotation Yrotation
                    JOINT RightElbow
                    {
                        OFFSET -26.662100   0.001175   0.000102
                        CHANNELS 3 Zrotation Xrotation Yrotation
                        JOINT RightWrist
                        {
                            OFFSET -28.869000   0.000016  -0.000079
                            CHANNELS 3 Zrotation Xrotation Yrotation
                            JOINT RightFinger0
                            {
                                OFFSET  -2.044660  -2.323490   3.252850
                                CHANNELS 3 Zrotation Xrotation Yrotation
                                JOINT RightFinger01
                                {
                                    OFFSET  -3.088140   0.000000   0.000000
                                    CHANNELS 3 Zrotation Xrotation Yrotation
                                    JOINT RightFinger02
                                    {
                                        OFFSET  -2.639460   0.000000   0.000000
                                        CHANNELS 3 Zrotation Xrotation Yrotation
                                        End Site
                                        {
                                            OFFSET  -2.582190   0.000000   0.000000
                                        }
                                    }
                                }
                            }
                            JOINT RightFinger1
                            {
                                OFFSET  -8.364480   0.000000   3.252850
                                CHANNELS 3 Zrotation Xrotation Yrotation
                                JOINT RightFinger11
                                {
                                    OFFSET  -4.646930   0.000000   0.000000
                                    CHANNELS 3 Zrotation Xrotation Yrotation
                                    JOINT RightFinger12
                                    {
                                        OFFSET  -2.323470   0.000000   0.000000
                                        CHANNELS 3 Zrotation Xrotation Yrotation
                                        End Site
                                        {
                                            OFFSET  -2.273050   0.000000   0.000000
                                        }
                                    }
                                }
                            }
                            JOINT RightFinger2
                            {
                                OFFSET  -8.364480   0.000000   1.078090
                                CHANNELS 3 Zrotation Xrotation Yrotation
                                JOINT RightFinger21
                                {
                                    OFFSET  -5.111620   0.000000   0.000000
                                    CHANNELS 3 Zrotation Xrotation Yrotation
                                    JOINT RightFinger22
                                    {
                                        OFFSET  -2.788160   0.000000   0.000000
                                        CHANNELS 3 Zrotation Xrotation Yrotation
                                        End Site
                                        {
                                            OFFSET  -2.727660   0.000000   0.000000
                                        }
                                    }
                                }
                            }
                            JOINT RightFinger3
                            {
                                OFFSET  -7.899780   0.000000  -1.078090
                                CHANNELS 3 Zrotation Xrotation Yrotation
                                JOINT RightFinger31
                                {
                                    OFFSET  -4.646930   0.000000   0.000000
                                    CHANNELS 3 Zrotation Xrotation Yrotation
                                    JOINT RightFinger32
                                    {
                                        OFFSET  -2.323470   0.000000   0.000000
                                        CHANNELS 3 Zrotation Xrotation Yrotation
                                        End Site
                                        {
                                            OFFSET  -2.273050   0.000000   0.000000
                                        }
                                    }
                                }
                            }
                            JOINT RightFinger4
                            {
                                OFFSET  -7.435090   0.000000  -3.252850
                                CHANNELS 3 Zrotation Xrotation Yrotation
                                JOINT RightFinger41
                                {
                                    OFFSET  -3.717550   0.000000   0.000000
                                    CHANNELS 3 Zrotation Xrotation Yrotation
                                    JOINT RightFinger42
                                    {
                                        OFFSET  -1.858770   0.000000   0.000000
                                        CHANNELS 3 Zrotation Xrotation Yrotation
                                        End Site
                                        {
                                            OFFSET  -1.818440   0.000000   0.000000
                                        }
                                    }
                                }
                            }
                        }
                    }
                }
            }
        }
    }
    JOINT LeftHip
    {
        OFFSET   9.783040   0.000000   0.000000
        CHANNELS 3 Zrotation Xrotation Yrotation
        JOINT LeftKnee
        {
            OFFSET   0.000032 -41.789100  -0.002222
            CHANNELS 3 Zrotation Xrotation Yrotation
            JOINT LeftAnkle
            {
                OFFSET   0.000087 -41.133200  -0.000135
                CHANNELS 3 Zrotation Xrotation Yrotation
                JOINT LeftToe
                {
                    OFFSET   0.000000  -6.358960  14.674500
                    CHANNELS 3 Zrotation Xrotation Yrotation
                    End Site
                    {
                        OFFSET   0.000000   0.000000   3.913200
                    }
                }
            }
        }
    }
    JOINT RightHip
    {
        OFFSET  -9.783040   0.000000   0.000000
        CHANNELS 3 Zrotation Xrotation Yrotation
        JOINT RightKnee
        {
            OFFSET   0.000047 -41.789100  -0.000896
            CHANNELS 3 Zrotation Xrotation Yrotation
            JOINT RightAnkle
            {
                OFFSET  -0.000117 -41.133300  -0.000248
                CHANNELS 3 Zrotation Xrotation Yrotation
                JOINT RightToe
                {
                    OFFSET   0.000000  -6.358970  14.674500
                    CHANNELS 3 Zrotation Xrotation Yrotation
                    End Site
                    {
                        OFFSET   0.000000   0.000000   3.913200
                    }
                }
            }
        }
    }
}
MOTION
Frames: 4
Frame Time:   0.016667
 -0.005024  89.556200   0.639525  -1.201680  -2.826130  -1.300410   0.917627   3.070710  -1.322360   1.910190   6.118980  -2.699670   0.329627  -1.296770   0.004963   0.546120  -2.632760   8.806360  -7.861510   1.926540   2.186060 -69.608900  14.607200  -7.822750  -1.886350  -6.450240  -8.266130   6.081010  -5.483610   5.004700  42.514300  34.041100 -63.650800 -27.601700   0.012491   0.006778  -8.790100   0.005532   0.005421 -33.641900   2.889850  -4.330900 -27.614700   0.001098   0.004270 -19.330200   0.000698   0.001551 -28.245700  -0.401295   0.747063 -33.737500   0.000499   0.007576 -22.469200   0.002775   0.000159 -27.968500  -2.623790   4.933640 -32.463000  -0.000640  -0.003157 -21.620300   0.005211  -0.008003 -33.306000  -3.073480   4.667030 -50.146600   0.003966  -0.005875 -33.397700   0.002218  -0.003899   7.984150   0.265274  10.527400  69.094300   8.488110   0.595450  -0.441446  -4.943450  11.063500  -6.739490  -1.058460   1.534860 -45.880300  39.989400  76.982900  26.586900  -0.005408   0.000686   8.293470  -0.002634  -0.009789  31.016900   7.080760  11.599700  25.965900  -0.003108   0.000411  18.176100   0.007819   0.000000  28.013300   5.407010  10.069200  35.869200  -0.002962  -0.001079  23.888800  -0.001017   0.004085  28.257700   2.750950   5.099160  34.863800   0.007217  -0.005058  23.219300   0.005162  -0.000288  32.815000   0.712675   1.113710  49.232700  -0.001958  -0.012306  32.789000  -0.002057  -0.005125   2.413890   5.230690   1.099670   0.873712  -0.000719   2.214380  -4.554140  -2.796980   0.268969  -0.000000   0.000000   0.000000  -0.747256   2.725070   0.378782   0.739971   3.740910  -1.361510  -1.668500  -4.068570  -0.831081   0.000000   0.000000   0.000000
 -0.004977  89.556200   0.649814  -1.201670  -2.826000  -1.300770   0.917775   3.066780  -1.318310   1.910170   6.111180  -2.691480   0.329791  -1.296700   0.004959   0.546506  -2.632530   8.816470  -7.861520   1.926080   2.186230 -69.618400  14.602800  -7.832870  -1.875570  -6.442470  -8.266000   6.099500  -5.504960   5.010520  42.511500  34.044200 -63.665000 -27.601700   0.012487   0.006783  -8.790200   0.005535   0.005421 -33.654900   2.891910  -4.332820 -27.625500   0.001102   0.004271 -19.337800   0.000698   0.001555 -28.245800  -0.399957   0.744534 -33.755100   0.000500   0.007574 -22.480800   0.002773   0.000157 -27.968600  -2.623790   4.932540 -32.479100  -0.000634  -0.003156 -21.631000   0.005210  -0.007999 -33.313900  -3.073480   4.665830 -50.158500   0.003961  -0.005873 -33.405600   0.002219  -0.003899   7.990240   0.264771  10.527100  69.095100   8.502630   0.606381  -0.445844  -4.952250  11.047400  -6.754480  -1.063540   1.528790 -45.864600  39.986000  76.973800  26.604600  -0.005401   0.000698   8.302330  -0.002635  -0.009795  31.023400   7.081140  11.589200  25.971100  -0.003105   0.000411  18.179800   0.007823  -0.000000  28.013700   5.407060  10.065500  35.896300  -0.002961  -0.001079  23.906900  -0.001010   0.004091  28.257700   2.750940   5.099700  34.870500   0.007219  -0.005054  23.223800   0.005161  -0.000288  32.818100   0.712625   1.112250  49.237400  -0.001954  -0.012311  32.792000  -0.002054  -0.005125   2.413750   5.236750   1.099730   0.873675  -0.001227   2.214380  -4.554100  -2.801860   0.269310   0.000000   0.000000  -0.000000  -0.747432   2.751310   0.378795   0.739945   3.721750  -1.361270  -1.668510  -4.069030  -0.830916  -0.000000   0.000000   0.000000
 -0.004884  89.556200   0.667128  -1.201620  -2.825810  -1.301130   0.917930   3.060700  -1.310540   1.909900   6.099140  -2.675780   0.329955  -1.296570   0.004955   0.546552  -2.632160   8.826570  -7.861430   1.923110   2.186400 -69.631900  14.598300  -7.849000  -1.858440  -6.434700  -8.265890   6.117990  -5.526310   5.016330  42.510800  34.052000 -63.690700 -27.601700   0.012480   0.006788  -8.790330   0.005539   0.005423 -33.667900   2.896710  -4.338530 -27.636200   0.001110   0.004273 -19.345400   0.000698   0.001564 -28.245800  -0.396582   0.738196 -33.778000   0.000503   0.007566 -22.496100   0.002769   0.000151 -27.968700  -2.623810   4.928630 -32.501600  -0.000621  -0.003152 -21.646000   0.005206  -0.007988 -33.325400  -3.073500   4.661890 -50.175800   0.003949  -0.005867 -33.417100   0.002221  -0.003895   7.999380   0.261250  10.526900  69.098700   8.529380   0.623948  -0.452269  -4.970520  11.019400  -6.771110  -1.071150   1.522730 -45.843000  39.979000  76.966400  26.622300  -0.005394   0.000715   8.311180  -0.002637  -0.009808  31.038700   7.082240  11.578700  25.983500  -0.003101   0.000416  18.188500   0.007833   0.000000  28.014300   5.407170  10.058700  35.946400  -0.002959  -0.001078  23.940300  -0.000995   0.004108  28.257600   2.750930   5.103500  34.888100   0.007222  -0.005048  23.235500   0.005161  -0.000289  32.826700   0.712526   1.108680  49.250300  -0.001944  -0.012325  32.800600  -0.002045  -0.005128   2.413440   5.247100   1.099820   0.873639  -0.001735   2.214390  -4.554020  -2.809820   0.269652   0.000000   0.000000   0.000000  -0.747621   2.777550   0.378837   0.739918   3.702590  -1.361030  -1.668560  -4.071980  -0.830753   0.000000   0.000000   0.000000
 -0.004765  89.556200   0.681419  -1.201460  -2.825730  -1.299620   0.917939   3.056580  -1.301850   1.909270   6.091060  -2.658290   0.329915  -1.296480   0.004956   0.543849  -2.631770   8.824420  -7.861160   1.915840   2.186350 -69.635600  14.614500  -7.860240  -1.846190  -6.443610  -8.266110   6.112440  -5.522480   5.011280  42.522300  34.068100 -63.722200 -27.597900   0.012474   0.006777  -8.790400   0.005526   0.005435 -33.667000   2.905600  -4.351790 -27.636100   0.001120   0.004277 -19.342700   0.000696   0.001576 -28.246000  -0.389769   0.725491 -33.784100   0.000507   0.007555 -22.500300   0.002761   0.000141 -27.969500  -2.619340   4.918550 -32.511300  -0.000599  -0.003146 -21.652400   0.005199  -0.007969 -33.331200  -3.068480   4.652210 -50.183800   0.003933  -0.005861 -33.422400   0.002222  -0.003885   8.003940   0.252838  10.528200  69.106800   8.555530   0.639543  -0.456295  -4.993580  10.992200  -6.772850  -1.076210   1.530160 -45.822700  39.972100  76.989700  26.621800  -0.005398   0.000723   8.310920  -0.002642  -0.009821  31.065600   7.094240  11.588400  26.006500  -0.003108   0.000435  18.204600   0.007845  -0.000000  28.015100   5.407320  10.050600  36.011300  -0.002957  -0.001078  23.983600  -0.000972   0.004133  28.256100   2.758020   5.117680  34.924700   0.007223  -0.005042  23.259900   0.005163  -0.000288  32.845700   0.712402   1.101720  49.278800  -0.001927  -0.012348  32.819700  -0.002028  -0.005136   2.412990   5.255740   1.099890   0.873742   0.000271   2.215230  -4.554040  -2.815770   0.268240  -0.000000   0.000000   0.000000  -0.748158   2.770060   0.383054   0.740313   3.723300  -1.364480  -1.668700  -4.079090  -0.831251  -0.000000   0.000000  -0.000000
